<?xml version="1.0" encoding="UTF-8"?>
<svg id="Layer_2" data-name="Layer 2" xmlns="http://www.w3.org/2000/svg" viewBox="0 0 117.11 97.61">
  <defs>
    <style>
      .cls-1 {
        fill: #070707;
        stroke-width: 0px;
      }
    </style>
  </defs>
  <g id="Layer_1-2" data-name="Layer 1">
    <g>
      <path class="cls-1" d="m58.34,58.6c-15.98,0-31.95.01-47.93,0-5.35,0-9.41-3.22-10.23-8.01-1.02-5.91,3.07-11.1,9.11-11.54.47-.03.94-.03,1.4-.03,31.9,0,63.79,0,95.69,0,4.96,0,8.58,2.31,10.08,6.4,2.36,6.42-2.27,13.03-9.31,13.16-4.91.09-9.83.02-14.75.02-11.35,0-22.71,0-34.06,0Z"/>
      <path class="cls-1" d="m58.5,97.6c-16.15,0-32.31.01-48.46,0-5.04,0-9.06-3.3-9.87-8-1.03-5.98,3.13-11.14,9.3-11.53.41-.03.82-.02,1.23-.02,31.9,0,63.79,0,95.69,0,4.95,0,8.58,2.33,10.08,6.41,2.35,6.44-2.33,13.11-9.33,13.13-13.99.04-27.97.01-41.96.01-2.22,0-4.45,0-6.67,0Z"/>
      <path class="cls-1" d="m58.59,0c16.15,0,32.31-.01,48.46,0,3.95,0,7.02,1.73,8.87,5.25,1.74,3.32,1.56,6.67-.47,9.83-1.92,2.99-4.79,4.37-8.29,4.46-2.05.05-4.1.01-6.14.01-30.14,0-60.28,0-90.42,0-5.35,0-9.43-3.03-10.38-7.64C-1.06,5.68,3.41.12,9.78,0c1.11-.02,2.22,0,3.34,0,15.16,0,30.32,0,45.47,0Z"/>
    </g>
  </g>
</svg>